<?xml version="1.0" encoding="utf-8"?>
<!-- Generator: Adobe Illustrator 16.0.0, SVG Export Plug-In . SVG Version: 6.00 Build 0)  -->
<!DOCTYPE svg PUBLIC "-//W3C//DTD SVG 1.1//EN" "http://www.w3.org/Graphics/SVG/1.1/DTD/svg11.dtd">
<svg version="1.1" id="Palme" xmlns="http://www.w3.org/2000/svg" xmlns:xlink="http://www.w3.org/1999/xlink" x="0px" y="0px"
	 width="297.833px" height="400px" viewBox="0 0 297.833 400" style="enable-background:new 0 0 297.833 400;" xml:space="preserve"
	 class="header-palme position-absolute"
	>
<path style="fill-rule:evenodd;clip-rule:evenodd;fill:#A3D01E;" d="M0,217.641c6.025-11.289,10.155-23.338,12.16-36.285
	c0.58-3.775,0.825-7.835,4.062-12.889c1.53,5.19,2.884,8.819,3.659,12.595c2.009,9.764,0.094,19.777,0.116,29.66
	c0.009,2.903-0.954,6.659,1.48,8.323c3.029,2.07,5.081-1.996,7.656-3.181c2.078-0.972,3.635-3.348,6.547-2.885
	c-1.906,22.695-2.161,45.2-2.446,67.705c-0.061,4.734-0.261,10.405,4.424,12.928c5.962,3.211,6.004,8.025,4.813,13.592
	c-2.672,12.451-5.47,24.869-8.188,37.307c-0.653,2.963-1.662,6.447,2.941,6.508c7.674,0.102,4.727,4.082,2.732,7.705
	c-6.46,11.775-13.007,23.51-19.481,35.27c-0.893,1.635-2.774,3.555-1.415,5.145c1.739,2.014,3.949-0.01,5.775-0.916
	c13.579-6.76,24.1-17.201,33.685-28.684c8.704-10.439,14.976-22.496,23.221-34.955c0.557,2.793,0.78,4.057,1.05,5.291
	c0.633,2.729-0.639,7.045,2.608,7.65c3.112,0.58,4.442-3.605,5.995-6.002c9.312-14.332,14.33-30.051,16.341-46.609
	c1.275-10.547,2.247-21.084,3.53-33.459c2.986,3.189,4.599,5.183,6.504,6.86c2.034,1.802,3.319,5.639,6.802,4.251
	c3.09-1.229,2.934-4.979,3.654-7.806c4.13-16.137,3.254-32.116-0.138-47.813c-4.141-19.204-8.213-38.391-9.188-58.225
	c-0.125-2.242-1.814-5.124,0.903-6.62c2.247-1.225,3.682,1.476,5.242,2.713c27.228,21.692,47.066,48.879,59.113,81.814
	c0.882,2.384,0.894,5.81,3.66,6.62c3.187,0.936,2.205-4.934,6.009-4.452c9.547,18.84,12.8,39.344,12.271,60.841
	c-0.098,4.094-2.82,10.982,0.681,11.719c4.948,1.041,6.948-5.938,9.385-9.902c18.568-30.206,18.661-61.083,7.615-92.282
	c-1.316-3.745-3.419-7.39-2.854-11.733c4.346-0.219,6.234,6.169,9.36,3.535c3.127-2.636,0.054-7.017-0.961-10.389
	c-7.572-25.212-22.224-45.633-41.63-62.761c-7.616-6.714-15.246-13.433-22.87-20.154c3.979-0.209,6.864,1.076,9.851,2.044
	c2.952,0.964,5.504,3.844,9.979,1.979c-18.118-23.092-42.323-36.086-69.961-44.117c0.323-0.802,0.65-1.625,0.986-2.426
	c29.833-1.862,59.688-3.708,89.532-5.57c0.181-0.763,0.368-1.545,0.538-2.328c-8.919-4.184-17.833-8.373-26.744-12.56
	c0.298-0.755,0.598-1.521,0.897-2.275c21.937-3.837,28.522-4.927,50.352-2.023c21.896,2.897,44.896,5.408,65.646,12.673
	c-7.614-12.455-18.592-21.223-29.156-30.306C254.639,12.353,240.357,5.833,225.705,0H0V217.641z"/>
</svg>
