<?xml version="1.0" encoding="utf-8"?>
<!-- Generator: Adobe Illustrator 16.0.0, SVG Export Plug-In . SVG Version: 6.00 Build 0)  -->
<!DOCTYPE svg PUBLIC "-//W3C//DTD SVG 1.1//EN" "http://www.w3.org/Graphics/SVG/1.1/DTD/svg11.dtd">
<svg version="1.1" xmlns="http://www.w3.org/2000/svg" xmlns:xlink="http://www.w3.org/1999/xlink" x="0px" y="0px"
	 width="635.124px" height="853px" viewBox="0 0 635.124 853" enable-background="new 0 0 635.124 853" xml:space="preserve">
<g id="Layer_1" display="none">
	<g display="inline">
		<defs>
			<rect id="SVGID_1_" width="647.616" height="871.14"/>
		</defs>
		<clipPath id="SVGID_2_">
			<use xlink:href="#SVGID_1_"  overflow="visible"/>
		</clipPath>
		<path clip-path="url(#SVGID_2_)" fill-rule="evenodd" clip-rule="evenodd" fill="#A3D01E" d="M-346.517,179.935
			c6.521-3.07,14.567-4.265,19.065-12.88c-10.041-6.083-21.664-6.373-32.292-9.212c-15.6-4.181-16.11-5.847-3.676-17.836
			c9.482-9.156,19.203-18.062,28.003-28.85c-44.328,10.451-87.896,21.295-133.829,9.693c8.777-13.079,23.754-12.457,34.638-23.966
			c-65.064-4.95-124.301-33.626-190.462-16.719c-1.865-8.006,3.321-11.221,5.938-15.322c2.419-3.83,5.606-7.186,9.57-12.165
			c-17.805-4.315-34.023-0.532-50.05,3.015c-18.677,4.16-36.391,11.693-53.759,20.221c-24.116,11.874-48.868,22.1-74.525,29.776
			c-10.095,3.009-20.228,5.233-30.556,3.162c-6.007-1.221-14.573,0.062-16.852-5.763c-2.97-7.524,5.771-11.703,10.312-16.571
			c32.719-35.209,65.638-70.16,100.22-103.611c34.621-33.524,71.644-62.294,123.237-73.999
			c-16.984-8.661-33.904-6.859-49.962-15.771c59.483-35.692,119.994-22.928,179.537-22.854c-5.958-18.445-5.27-19.325,14.187-20.266
			c39.047-1.86,75.661,7.836,112.151,18.013c5.891,1.65,11.812,3.123,21.279,5.615c-9.075-21.932-22.786-35.935-38.772-47.439
			c-38.907-27.971-85.14-42.26-128.372-62.158c-6.415-2.951-23.333-2.199-8.892-18.264c3.933-4.363-4.552-5.938-7.951-7.459
			c-44.027-19.705-88.204-39.189-132.329-58.713c-3.092-1.368-6.24-2.597-9.199-4.134c-3.544-1.844-7.106-3.981-6.124-8.921
			c1.019-4.95,5.338-5.722,9.336-6.507c13.979-2.746,27.952-5.38,45.923-8.837c-19.554-11.354-37.177-16.274-55.493-18.895
			c-23.03-3.294-46.29-5.54-69.406-8.399c-4.3-0.535-10.562,0.536-11.323-5.048c-0.685-5.15,5.175-7.085,8.941-9.644
			c59.688-40.541,123.917-64.847,195.374-63.531c5.419,0.113,11.28,2.012,17.46-2.978c-7.764-12.036-21.206-17.345-31.144-26.468
			c-2.667-2.465-8.188-3.474-6.241-8.524c1.741-4.496,6.889-3.795,10.717-4.205c25.585-2.779,50.256,0.913,73.976,8.855
			c18.094,6.039,35.835,12.997,55.101,20.038c2.812-14.739-3.692-26.987-5.061-40.012c-0.524-4.891-4.309-11.165,1.081-14.21
			c6.023-3.382,8.541,3.443,11.144,7.399c26.292,39.799,68.725,61.167,104.448,90.246c57.746,46.967,112.183,97.183,141.477,168.423
			c5.398,13.141,9.704,26.781,16.055,44.485c9.539-30.819,7.188-56.826,6.871-82.75c-0.121-11.941-1.159-23.834-1.669-35.799
			c-0.13-2.774-0.555-6.218,2.426-7.722c4.342-2.166,5.915,1.859,7.749,4.332c7.479,10.174,14.788,20.432,24.906,34.437
			c15.608-108.842-12.302-197.04-84.038-270.806c61.634,9.789,112.201,38.354,156.684,77.786
			c44.807,39.75,73.111,90.479,91.542,152.178c5.466-16.93,3.261-29.752,4.798-42.264c0.54-4.276-1.417-10.249,4.237-11.939
			c4.635-1.37,8.68,2.589,11.344,6.042c6.411,8.37,12.892,16.831,18.188,25.974c36.584,63.09,39.976,129.966,11.852,200.238
			c-4.284,10.67-8.347,21.431-9.917,34.444c10.292-7.846,20.534-15.796,30.921-23.555c3.552-2.649,6.708-8.519,11.489-6.011
			c5.689,2.993,2.188,9.336,1.075,13.948c-5.472,23.207-20.187,41.73-34.266,60.406C100.032-68.317,88.713-54.91,78.791-38.437
			c6.852-2.951,13.702-5.823,20.482-8.852c78.839-34.962,159.379-54.25,243.801-38.996c22.941,4.131,45.318,9.958,66.485,19.321
			c4.403,1.96,11.54,2.277,11.629,7.98c0.074,6.264-7.326,6.467-11.802,8.56c-7.76,3.591-15.714,6.707-27.646,11.719
			c34.03,13.16,36.599,14.536,66.743,26.314c41.882,16.344,84.684,31.169,119.177,60.825c22.48,19.331,45.843,37.991,62.048,64.496
			c-44.16-15.463-93.107-20.807-139.704-26.971c-46.455-6.18-60.469-3.861-107.153,4.305c-0.637,1.605-1.276,3.234-1.91,4.843
			c18.964,8.909,37.934,17.825,56.914,26.728c-0.363,1.667-0.761,3.331-1.146,4.956c-63.511,3.964-127.045,7.891-190.533,11.852
			c-0.714,1.706-1.411,3.457-2.098,5.164c58.818,17.091,110.329,44.743,148.886,93.886c-9.522,3.97-14.956-2.16-21.235-4.21
			c-6.356-2.059-12.499-4.796-20.963-4.35c16.224,14.303,32.46,28.6,48.668,42.89c41.3,36.451,72.479,79.907,88.594,133.562
			c2.16,7.178,8.7,16.499,2.046,22.109c-6.654,5.605-10.672-7.99-19.921-7.522c-1.202,9.242,3.274,16.998,6.075,24.968
			c23.504,66.396,23.309,132.106-16.208,196.387c-5.187,8.439-9.442,23.29-19.972,21.074c-7.452-1.566-1.658-16.225-1.45-24.938
			c1.126-45.751-5.796-89.384-26.113-129.478c-8.096-1.026-6.006,11.466-12.79,9.474c-5.887-1.722-5.913-9.013-7.789-14.086
			c-25.636-70.091-67.854-127.947-125.798-174.111c-3.319-2.632-6.375-8.38-11.155-5.774c-5.782,3.187-2.188,9.318-1.923,14.089
			c2.075,42.208,10.742,83.041,19.554,123.907c7.219,33.409,9.083,67.413,0.293,101.755c-1.532,6.017-1.2,13.996-7.776,16.611
			c-7.411,2.954-10.148-5.215-14.477-9.048c-4.053-3.568-7.485-7.813-13.84-14.599c-2.73,26.334-4.798,48.758-7.512,71.205
			c-4.28,35.235-14.959,68.69-34.776,99.188c-3.305,5.105-6.137,14.009-12.759,12.774c-6.91-1.289-4.202-10.473-5.551-16.279
			c-0.575-2.629-1.049-5.319-2.234-11.263c-17.547,26.516-30.894,52.174-49.417,74.391c-20.396,24.436-42.787,46.659-71.685,61.041
			c-3.886,1.928-8.589,6.236-12.291,1.951c-2.892-3.384,1.11-7.471,3.012-10.95c13.778-25.026,27.709-49.996,41.459-75.061
			c4.244-7.706,10.515-16.177-5.815-16.394c-9.796-0.13-7.649-7.544-6.26-13.848c5.784-26.471,11.739-52.899,17.427-79.396
			c2.533-11.843,2.442-22.092-10.245-28.925c-9.969-5.369-9.545-17.437-9.414-27.511c0.607-47.894,1.149-95.786,5.206-144.084
			c-6.198-0.986-9.512,4.071-13.935,6.14c-5.478,2.523-9.845,11.174-16.292,6.77c-5.179-3.542-3.13-11.534-3.149-17.713
			c-0.047-21.03,4.029-42.338-0.247-63.118c-1.648-8.038-4.529-15.759-7.785-26.806c-6.889,10.753-7.412,19.395-8.644,27.429
			c-6.87,44.368-25.457,83.779-53.754,119.465c-18.244,23.017-33.628,47.448-44.543,74.871
			c-16.779,42.228-43.872,76.865-84.548,99.693c-4.286,2.434-8.708,8.332-13.709,5.461c-5.402-3.104-1.064-9.329-0.725-14.185
			c0.369-5.463,3.624-10.929,0.693-17.496c-41.802,32.168-75.245,78.721-134.441,81.321c0.437-11.049,8.63-15.352,13.135-21.807
			c16.4-23.382,26.746-49.15,33.165-76.314c9.853-41.544,19.523-83.127,39.768-121.843c4.426-8.502,6.039-15.816-7.58-15.127
			c-3.696,0.208-8.983,1.636-10.34-3.28c-1.199-4.451,3.651-6.768,6.312-9.637c42.096-46.154,66.564-104.368,64.856-157.111
			c-21.423,10.65-42.051,20.966-62.749,31.139c-4.085,1.995-8.839,6.298-12.754,3.36c-5.112-3.853-0.643-9.651,1.316-13.958
			c15.911-35.003,23.683-71.208,24.498-108.899c0.258-11.522-1.708-14.325-14.16-11.904"/>
	</g>
</g>
<g id="Layer_2">
	<path fill-rule="evenodd" clip-rule="evenodd" fill="#A3D01E" d="M0,463.163c12.823-24.024,21.612-49.665,25.878-77.218
		c1.232-8.034,1.755-16.676,8.644-27.429c3.256,11.046,6.137,18.768,7.785,26.806c4.276,20.779,0.2,42.088,0.247,63.118
		c0.019,6.18-2.029,14.171,3.149,17.713c6.447,4.404,10.814-4.247,16.292-6.77c4.423-2.069,7.736-7.125,13.935-6.14
		c-4.057,48.298-4.599,96.19-5.206,144.084c-0.131,10.074-0.555,22.142,9.414,27.511c12.687,6.833,12.777,17.082,10.245,28.925
		c-5.688,26.496-11.643,52.925-17.427,79.396c-1.39,6.304-3.537,13.718,6.26,13.848c16.33,0.217,10.059,8.688,5.815,16.394
		c-13.75,25.064-27.681,50.034-41.459,75.061c-1.902,3.479-5.904,7.566-3.012,10.95c3.702,4.285,8.405-0.023,12.291-1.951
		c28.898-14.382,51.288-36.605,71.685-61.041c18.523-22.217,31.871-47.875,49.417-74.391c1.186,5.943,1.66,8.634,2.234,11.263
		c1.349,5.807-1.359,14.99,5.551,16.279c6.622,1.234,9.454-7.669,12.759-12.774c19.816-30.497,30.496-63.952,34.776-99.188
		c2.714-22.447,4.781-44.871,7.512-71.205c6.355,6.785,9.787,11.03,13.84,14.599c4.329,3.833,7.065,12.002,14.477,9.048
		c6.576-2.615,6.244-10.595,7.776-16.611c8.789-34.342,6.925-68.346-0.293-101.755c-8.812-40.867-17.479-81.699-19.554-123.907
		c-0.264-4.771-3.859-10.903,1.923-14.089c4.781-2.605,7.836,3.142,11.155,5.774c57.944,46.164,100.162,104.021,125.798,174.111
		c1.876,5.073,1.902,12.364,7.789,14.086c6.784,1.993,4.694-10.5,12.79-9.474c20.317,40.094,27.239,83.727,26.113,129.478
		c-0.208,8.714-6.001,23.372,1.45,24.938c10.53,2.216,14.785-12.635,19.972-21.074c39.516-64.28,39.712-129.991,16.208-196.387
		c-2.801-7.971-7.277-15.727-6.075-24.968c9.249-0.468,13.267,13.127,19.921,7.522c6.654-5.61,0.114-14.931-2.046-22.109
		c-16.115-53.654-47.294-97.111-88.594-133.562c-16.208-14.29-32.444-28.586-48.668-42.89c8.465-0.446,14.607,2.291,20.963,4.35
		c6.28,2.05,11.713,8.18,21.235,4.21c-38.557-49.144-90.068-76.795-148.886-93.886c0.687-1.707,1.384-3.458,2.098-5.164
		c63.488-3.961,127.022-7.888,190.533-11.852c0.384-1.625,0.783-3.289,1.146-4.956c-18.979-8.903-37.949-17.818-56.914-26.728
		c0.634-1.609,1.273-3.238,1.91-4.843c46.684-8.166,60.699-10.485,107.153-4.305c46.597,6.165,95.544,11.508,139.704,26.971
		c-16.205-26.505-39.567-45.165-62.048-64.496C541.901,26.289,511.508,12.414,480.326,0H0V463.163z"/>
</g>
</svg>
